<svg xmlns="http://www.w3.org/2000/svg" xmlns:xlink="http://www.w3.org/1999/xlink" width="73" height="73" viewBox="0 0 73 73">
  <defs>
    <clipPath id="clip-path">
      <rect id="Rectangle_51" data-name="Rectangle 51" width="73" height="73" transform="translate(126 636)" fill="none" stroke="#707070" stroke-width="1"/>
    </clipPath>
  </defs>
  <g id="Mask_Group_2" data-name="Mask Group 2" transform="translate(-126 -636)" clip-path="url(#clip-path)">
    <g id="Group_13" data-name="Group 13" transform="translate(-78 841)">
      <g id="Group_12" data-name="Group 12" transform="translate(220 -186)">
        <g id="Group_11" data-name="Group 11" transform="translate(0 6.702)">
          <path id="Path_7" data-name="Path 7" d="M122.266,401.362H121.9l-17.8,11.783L86.3,401.362h-.364a2.2,2.2,0,0,0-2.048,2.316v24.063a2.194,2.194,0,0,0,2.048,2.314h36.333a2.193,2.193,0,0,0,2.048-2.314V403.678A2.195,2.195,0,0,0,122.266,401.362Zm-.081,3.512-16.571,10.911-.329.218,16,10.542a.671.671,0,0,1,.276.409.735.735,0,0,1-.066.51.573.573,0,0,1-.816.243l-16.47-10.85-.112-.072L87.516,427.711a.579.579,0,0,1-.816-.245.745.745,0,0,1-.064-.51.665.665,0,0,1,.278-.409l15.67-10.324.331-.218-16.9-11.129a.671.671,0,0,1-.276-.409.764.764,0,0,1,.061-.513.62.62,0,0,1,.366-.312.51.51,0,0,1,.452.072l17.372,11.439.112.074,17.481-11.513,0,0a.512.512,0,0,1,.443-.072.6.6,0,0,1,.371.315.741.741,0,0,1,.064.513A.671.671,0,0,1,122.185,404.875Z" transform="translate(-83.885 -401.362)" fill="#385ce9"/>
        </g>
        <path id="Path_8" data-name="Path 8" d="M84.985,403.506h37.194l-17.153-6.451a4.273,4.273,0,0,0-2.889,0Z" transform="translate(-83.367 -396.804)" fill="#385ce9"/>
      </g>
    </g>
  </g>
</svg>
