<svg xmlns="http://www.w3.org/2000/svg" xmlns:xlink="http://www.w3.org/1999/xlink" width="71.727" height="71.727" viewBox="0 0 71.727 71.727">
  <defs>
    <clipPath id="clip-path">
      <path id="Path_14" data-name="Path 14" d="M35.611,0a35.863,35.863,0,1,0,.5,0Z" fill="none"/>
    </clipPath>
    <radialGradient id="radial-gradient" cx="-0.014" cy="0.5" r="1.308" gradientTransform="matrix(1, 0, 0, -1, 0, 1.707)" gradientUnits="objectBoundingBox">
      <stop offset="0" stop-color="#f5ec53"/>
      <stop offset="0.241" stop-color="#e48244"/>
      <stop offset="0.399" stop-color="#d05567"/>
      <stop offset="0.489" stop-color="#c84278"/>
      <stop offset="1" stop-color="#192cfa"/>
    </radialGradient>
    <clipPath id="clip-path-2">
      <rect id="Rectangle_48" data-name="Rectangle 48" width="71.727" height="71.727" transform="translate(0 0)" fill="none"/>
    </clipPath>
  </defs>
  <g id="Group_29" data-name="Group 29" transform="translate(0 0)">
    <g id="Group_26" data-name="Group 26">
      <g id="Group_25" data-name="Group 25" clip-path="url(#clip-path)">
        <rect id="Rectangle_47" data-name="Rectangle 47" width="101.416" height="101.416" transform="translate(-35.835 34.458) rotate(-43.877)" fill="url(#radial-gradient)"/>
      </g>
    </g>
    <g id="Group_28" data-name="Group 28">
      <g id="Group_27" data-name="Group 27" clip-path="url(#clip-path-2)">
        <path id="Path_15" data-name="Path 15" d="M35.863,19.743c5.251,0,5.872.02,7.946.115a10.863,10.863,0,0,1,3.652.677,6.517,6.517,0,0,1,3.731,3.731,10.882,10.882,0,0,1,.678,3.652c.094,2.074.114,2.7.114,7.946s-.02,5.873-.114,7.946a10.868,10.868,0,0,1-.678,3.651,6.515,6.515,0,0,1-3.731,3.732,10.863,10.863,0,0,1-3.652.677c-2.074.1-2.695.115-7.946.115s-5.872-.02-7.946-.115a10.849,10.849,0,0,1-3.651-.677,6.512,6.512,0,0,1-3.732-3.732,10.894,10.894,0,0,1-.678-3.651c-.094-2.073-.114-2.695-.114-7.946s.02-5.872.114-7.946a10.908,10.908,0,0,1,.678-3.652,6.515,6.515,0,0,1,3.732-3.731,10.849,10.849,0,0,1,3.651-.677c2.074-.095,2.7-.115,7.946-.115m0-3.543c-5.341,0-6.01.023-8.107.118a14.455,14.455,0,0,0-4.774.914,10.056,10.056,0,0,0-5.75,5.751,14.424,14.424,0,0,0-.914,4.774c-.1,2.1-.119,2.766-.119,8.107s.022,6.01.119,8.107a14.423,14.423,0,0,0,.914,4.773,10.056,10.056,0,0,0,5.75,5.751,14.429,14.429,0,0,0,4.774.914c2.1.1,2.766.119,8.107.119s6.01-.023,8.107-.119a14.429,14.429,0,0,0,4.774-.914,10.061,10.061,0,0,0,5.751-5.751,14.474,14.474,0,0,0,.914-4.773c.1-2.1.118-2.767.118-8.107s-.022-6.01-.118-8.107a14.475,14.475,0,0,0-.914-4.774,10.061,10.061,0,0,0-5.751-5.751,14.455,14.455,0,0,0-4.774-.914c-2.1-.1-2.766-.118-8.107-.118" fill="#fff"/>
        <path id="Path_16" data-name="Path 16" d="M35.863,25.766a10.1,10.1,0,1,0,10.1,10.1,10.1,10.1,0,0,0-10.1-10.1m0,16.652a6.554,6.554,0,1,1,6.555-6.555,6.555,6.555,0,0,1-6.555,6.555" fill="#fff"/>
        <path id="Path_17" data-name="Path 17" d="M48.72,25.367a2.36,2.36,0,1,1-2.359-2.359,2.36,2.36,0,0,1,2.359,2.359" fill="#fff"/>
      </g>
    </g>
  </g>
</svg>
