<svg id="Layer_1" data-name="Layer 1" xmlns="http://www.w3.org/2000/svg" xmlns:xlink="http://www.w3.org/1999/xlink" viewBox="0 0 512.82 331.31"><defs><style>.cls-1{fill:none;}.cls-2{fill:#1b637e;}.cls-3{clip-path:url(#clip-path);}.cls-4{fill:#fff8e7;}.cls-5{fill:#fdb816;}.cls-6{fill:#66c8c9;}.cls-7{fill:#f15d34;}.cls-8{clip-path:url(#clip-path-2);}.cls-9{clip-path:url(#clip-path-3);}.cls-10{fill:#fff;}.cls-11{fill:#a6cae8;}.cls-12{clip-path:url(#clip-path-4);}.cls-13{clip-path:url(#clip-path-5);}.cls-14{fill:#164d61;}.cls-15{clip-path:url(#clip-path-6);}</style><clipPath id="clip-path" transform="translate(821.92 -171.37)"><circle class="cls-1" cx="-566.5" cy="242.25" r="69.32"/></clipPath><clipPath id="clip-path-2" transform="translate(821.92 -171.37)"><circle class="cls-2" cx="-387.13" cy="242.25" r="69.66" transform="translate(-284.69 -202.79) rotate(-45)"/></clipPath><clipPath id="clip-path-3" transform="translate(821.92 -171.37)"><circle class="cls-1" cx="-746.91" cy="242.25" r="70.88"/></clipPath><clipPath id="clip-path-4" transform="translate(821.92 -171.37)"><circle class="cls-1" cx="-747.57" cy="433.31" r="68.05"/></clipPath><clipPath id="clip-path-5" transform="translate(821.92 -171.37)"><circle class="cls-1" cx="-560.89" cy="433.31" r="69.37" transform="translate(-470.68 -269.69) rotate(-45)"/></clipPath><clipPath id="clip-path-6" transform="translate(821.92 -171.37)"><circle class="cls-1" cx="-388.48" cy="433.31" r="68.84" transform="translate(-420.18 -147.78) rotate(-45)"/></clipPath></defs><circle class="cls-2" cx="255.42" cy="70.88" r="69.32"/><g class="cls-3"><polygon class="cls-4" points="320.24 71.89 298.85 78.02 290.35 87.16 278.7 83.32 261.77 50.41 285.36 46.9 303.1 40.96 320.24 71.89"/><path class="cls-5" d="M-564.81,271.79a6.55,6.55,0,0,1-2.8-8.83h0a6.55,6.55,0,0,1,8.82-2.81l17.76,10a6.55,6.55,0,0,1,2.8,8.83h0a6.55,6.55,0,0,1-8.82,2.81Z" transform="translate(821.92 -171.37)"/><path class="cls-5" d="M-571,281.66a6.15,6.15,0,0,1-2.64-8.29h0a6.16,6.16,0,0,1,8.29-2.63l16.68,9.4a6.16,6.16,0,0,1,2.63,8.29h0a6.15,6.15,0,0,1-8.29,2.64Z" transform="translate(821.92 -171.37)"/><path class="cls-5" d="M-605.45,217.32l15.51,5.78s13.74-2.74,14.53-2.87l9,9,21.2,9.65,15.42,8.14a58.65,58.65,0,0,1-8,14.3c-3.26,4.33-5.94,14.08-10.34,19.93-3.12,4.14-4.17,8.12-9.49,7.13-12.82-2.4-37.24-20.55-40.94-23.29-.11-.07-6.84-9.43-6.84-9.43L-625,245.84Z" transform="translate(821.92 -171.37)"/><path class="cls-5" d="M-557.76,261.83a6.63,6.63,0,0,1-3.09-8.86h0a6.64,6.64,0,0,1,8.93-2.87l18.38,10a6.64,6.64,0,0,1,3.1,8.86h0a6.63,6.63,0,0,1-8.93,2.87Z" transform="translate(821.92 -171.37)"/><path class="cls-5" d="M-553.17,250.12a6.82,6.82,0,0,1-3.39-9h0a6.8,6.8,0,0,1,9.08-3.22l18.94,9.29a6.82,6.82,0,0,1,3.39,9h0a6.82,6.82,0,0,1-9,3.39l-2.12-.93Z" transform="translate(821.92 -171.37)"/><path class="cls-4" d="M-548.78,237.27l-18.64-7.09-7.86,2.12c-.69,10.91-10.64,10.24-12.29,10s-.91-4.22-.91-4.22l6.11-18,20.44-4.82c4.44.85,23.48,3.21,23.48,3.21Z" transform="translate(821.92 -171.37)"/><path class="cls-4" d="M-588.81,274.57c-1.38,2.45-4.71,3.19-7.45,1.66h0c-2.75-1.54-3.86-4.77-2.48-7.22l4.48-8c1.38-2.45,4.71-3.19,7.45-1.66h0c2.75,1.54,3.86,4.77,2.48,7.23Z" transform="translate(821.92 -171.37)"/><path class="cls-4" d="M-578.62,280a5.76,5.76,0,0,1-7.82,2.3h0a5.76,5.76,0,0,1-2.12-7.86l5.15-9.18a5.75,5.75,0,0,1,7.81-2.31h0a5.76,5.76,0,0,1,2.12,7.86Z" transform="translate(821.92 -171.37)"/><path class="cls-4" d="M-568.47,285.35a5.5,5.5,0,0,1-7.54,1.82h0a5.5,5.5,0,0,1-2.39-7.38l4.65-8.31a5.51,5.51,0,0,1,7.55-1.83h0a5.51,5.51,0,0,1,2.39,7.39Z" transform="translate(821.92 -171.37)"/><path class="cls-4" d="M-559.26,290.68c-1.18,2.1-4.19,2.66-6.73,1.24h0c-2.54-1.42-3.64-4.28-2.47-6.39l3.86-6.88c1.18-2.11,4.19-2.66,6.73-1.24h0c2.54,1.42,3.64,4.28,2.46,6.39Z" transform="translate(821.92 -171.37)"/><polygon class="cls-6" points="207.17 84.93 222.59 42.42 193.83 32.38 179.18 75.83 207.17 84.93"/><polygon class="cls-7" points="287.73 42.49 302.72 81.66 332.05 71.06 316.42 32.38 287.73 42.49"/></g><circle class="cls-2" cx="-387.13" cy="242.25" r="69.66" transform="translate(537.24 -374.16) rotate(-45)"/><g class="cls-8"><rect class="cls-6" x="-438.18" y="209.87" width="102.78" height="69.03" rx="2.86" transform="translate(767.38 -241.54) rotate(-11.15)"/><path class="cls-4" d="M-347,209.47l-.05-.28-90,17.74.09.48,7.11-1.4,1.39,7.06-7.11,1.4.1.47,7.1-1.4,1.39,7.06-7.1,1.4.09.48,7.1-1.4,1.4,7.06-7.11,1.4.09.47,7.11-1.4,1.39,7.06-7.1,1.4.09.48,7.1-1.4,1.39,7.05-7.1,1.4.09.48,7.11-1.4,1.39,7.06-7.1,1.4.09.48,7.1-1.4,1.38,7,.48-.09-1.38-7,7.06-1.39,1.38,7,.47-.1-1.37-7,7.05-1.39,1.38,7,.48-.09-1.38-7,7.06-1.39,1.38,7,.48-.09-1.38-7,7.05-1.39,1.38,7,.48-.09-1.38-7,7.06-1.39,1.38,7,.47-.09-1.38-7,7.06-1.39,1.38,7,.47-.1-1.38-7,7.07-1.39,1.38,7,.47-.09-1.38-7,7.06-1.39,1.38,7,.48-.1-1.38-7,7.05-1.39,1.38,7,.48-.09-1.38-7,7.06-1.39,1.38,7,.47-.1-1.38-7,6.87-1.36,1.38,7,.48-.09-10.33-52.41Zm-49.3,25.58,7.06-1.39,1.39,7.05-7.06,1.39Zm.92,7.15-7.06,1.39-1.39-7.06,7.06-1.39Zm6.62-8.64,7.05-1.39,1.39,7.06-7,1.39Zm7.53-1.48,7.06-1.39,1.39,7.05-7.06,1.39Zm7.53-1.49,7.06-1.39,1.39,7.06-7.06,1.39Zm7.54-1.48,7.05-1.39,1.39,7.05-7.05,1.39Zm-.1-.48-1.39-7.06,7.06-1.39,1.39,7.06Zm-.47.09-7.06,1.39-1.39-7.05,7.06-1.39Zm-7.54,1.49-7.06,1.39-1.39-7.06,7.06-1.39Zm-7.53,1.48-7.06,1.39-1.39-7.05,7.06-1.39Zm-7.54,1.49-7.05,1.39-1.39-7.06,7.05-1.39Zm-7.53,1.48-7.06,1.39-1.39-7.05,7.06-1.4Zm-7.54,1.49-7.05,1.39-1.39-7.06,7.05-1.39Zm.1.47,1.39,7.06-7.06,1.39-1.39-7Zm1.48,7.54,1.39,7.06-7,1.39-1.39-7.06Zm.48-.1,7.06-1.39,1.39,7.06-7.06,1.39Zm7.54-1.48,7-1.39,1.39,7.06-7.05,1.39Zm7.53-1.48,7.06-1.4,1.39,7.06-7.06,1.39Zm7.53-1.49,7.06-1.39,1.39,7.06-7.06,1.39Zm7.54-1.48,7.05-1.39,1.4,7.06-7.06,1.39Zm7.53-1.49,7.06-1.39,1.39,7.06-7.06,1.39Zm7.54-1.48,7.05-1.39,1.4,7.06-7.06,1.39Zm-.1-.48-1.39-7.06,7.06-1.39,1.39,7.06Zm-1.48-7.54-1.39-7,7.06-1.39,1.39,7.05Zm-1.49-7.53-1.39-7.06,7.06-1.39,1.39,7.06Zm-.47.1-7.06,1.39-1.39-7.06,7.05-1.39Zm-7.54,1.48-7.05,1.39-1.4-7.06,7.06-1.39Zm-7.53,1.49-7.06,1.39-1.39-7.06,7.06-1.39Zm-7.54,1.48-7.05,1.39-1.39-7.06,7.05-1.39Zm-7.53,1.49-7.06,1.39L-399.3,220l7.06-1.39Zm-7.53,1.48-7.06,1.39-1.39-7.06,7.06-1.39Zm-7.54,1.48L-413,230l-1.39-7.06,7.06-1.39Zm-7.53,1.49-7.06,1.39-1.39-7.06,7.06-1.39Zm.09.47,1.39,7.06L-419,239l-1.39-7.05Zm1.49,7.54,1.39,7.06-7.06,1.39-1.39-7.06Zm1.48,7.53,1.39,7.06-7.06,1.39-1.39-7.06Zm1.48,7.54,1.39,7.05-7.05,1.39-1.39-7.05Zm.48-.1,7.06-1.39,1.39,7.06-7.06,1.39Zm7.54-1.48,7.05-1.39,1.4,7-7.06,1.4Zm7.53-1.49,7.06-1.39,1.39,7.06-7.06,1.39Zm7.54-1.48,7.05-1.39,1.39,7.06-7.05,1.39Zm7.53-1.48,7.06-1.4,1.39,7.06-7.06,1.39Zm7.53-1.49,7.06-1.39,1.39,7.06-7.06,1.39Zm7.54-1.48,7.05-1.39,1.39,7.05-7.05,1.39Zm7.53-1.49,7.06-1.39,1.39,7.06-7.06,1.39Zm7.54-1.48,6.86-1.36,1.39,7.06-6.86,1.35Zm-.1-.48-1.39-7.06,6.87-1.35,1.39,7.06Zm-1.48-7.53-1.39-7.06,6.86-1.36,1.4,7.06Zm-1.49-7.54-1.39-7.06,6.87-1.35,1.39,7.06Zm-1.48-7.53-1.39-7.06,6.87-1.35,1.39,7.05Zm-76.74,7.79,7.06-1.39,1.39,7.05L-428,233Zm1.49,7.53,7.06-1.39,1.39,7.06-7.06,1.39Zm1.48,7.53,7.06-1.39,1.39,7.06-7.06,1.39Zm1.49,7.54,7.06-1.39,1.39,7.06-7.06,1.39Zm1.48,7.53,7.06-1.39,1.39,7.06-7.06,1.39Zm2.88,14.6-1.39-7.06,7.06-1.39,1.39,7.06Zm7.53-1.49-1.39-7.06,7.06-1.39,1.39,7.06Zm7.54-1.48-1.39-7.06,7.05-1.39,1.39,7.06Zm7.53-1.49-1.39-7.06,7.06-1.39,1.39,7.06Zm7.54-1.48-1.4-7.06,7.06-1.39,1.39,7.06Zm7.53-1.49-1.39-7.05,7.06-1.39,1.39,7Zm7.53-1.48-1.39-7.06,7.06-1.39,1.39,7.06Zm7.54-1.49-1.39-7.05,7-1.39,1.39,7.05Zm7.53-1.48-1.39-7.06,7.06-1.39,1.39,7.06Zm7.54-1.48-1.4-7.06,7.06-1.39,1.39,7Zm7.53-1.49-1.39-7.06,6.87-1.35,1.39,7.06Z" transform="translate(821.92 -171.37)"/><polygon class="cls-7" points="395.41 108.12 385.05 55.52 384.57 55.61 394.94 108.22 394.98 108.45 395.03 108.69 485.52 90.86 485.43 90.39 395.41 108.12"/><path class="cls-7" d="M-426.2,279.8a.53.53,0,0,1-.25,0,.48.48,0,0,1-.3-.62l3.36-9.8a.48.48,0,0,1,.34-.31.46.46,0,0,1,.45.11l3.47,3.24,4-13.39a.45.45,0,0,1,.13-.22l6.71-6.37a.48.48,0,0,1,.57-.08l9.66,5.26,2.12-9.63a.47.47,0,0,1,.29-.35.48.48,0,0,1,.46.06l4.33,3,4.22-13.82a.45.45,0,0,1,.35-.33.49.49,0,0,1,.46.13l7.63,7.87,1.91-7.36a.53.53,0,0,1,.12-.22l4.64-4.79a.49.49,0,0,1,.41-.15l9.62,1.1,6.32-14.9a.48.48,0,0,1,.64-.26.49.49,0,0,1,.26.64l-6.46,15.23a.5.5,0,0,1-.51.3L-371,233l-4.4,4.54-2.08,8.07a.51.51,0,0,1-.35.35.5.5,0,0,1-.47-.13L-386,238l-4.18,13.68a.48.48,0,0,1-.31.31.47.47,0,0,1-.43-.06l-4.28-3-2.1,9.55a.45.45,0,0,1-.27.33.49.49,0,0,1-.44,0l-9.91-5.4-6.37,6.05-4.17,14a.51.51,0,0,1-.34.33.46.46,0,0,1-.46-.12l-3.5-3.26-3.11,9.09A.48.48,0,0,1-426.2,279.8Z" transform="translate(821.92 -171.37)"/><polygon class="cls-7" points="469.53 48.96 468.81 43.19 464.18 46.69 469.53 48.96"/><polygon class="cls-4" points="476.97 74.78 490.17 72.4 496.48 106.15 481.43 113.87 476.37 100.35 469.65 93 477.95 79.56 476.97 74.78"/><path class="cls-4" d="M-344.95,246.16l13.2-2.38,2.62,24.47a10.07,10.07,0,0,0-3.61-.15,47.67,47.67,0,0,0-7.26.55c-2.69.47-3.58.19-6.24.44l-4.79-4.82.6-12.2,7.66-2.32Z" transform="translate(821.92 -171.37)"/><path class="cls-4" d="M-331.75,243.78l-15.11-10.88-10.3-.75s-8.59,2.27-10.22,3.39c-.82.57-1.34,3,1.9,3.84,2,.51,6.19-1.53,6.19-1.53l5.54,1.42,5.72,4.21,3.77,6.06,10.71-2.69Z" transform="translate(821.92 -171.37)"/><polygon class="cls-5" points="473.61 105.09 499.38 97.72 506.74 120.18 481.85 132.94 473.61 105.09"/><rect class="cls-2" x="-336.38" y="247.87" width="4.79" height="2.05" transform="translate(331.63 -308.57) rotate(-75.35)"/><rect class="cls-5" x="-361.52" y="229.03" width="4.79" height="26.58" transform="translate(319.21 -337.8) rotate(-75.35)"/><rect class="cls-5" x="-361.52" y="229.03" width="4.79" height="26.58" transform="translate(319.21 -337.8) rotate(-75.35)"/><polygon class="cls-2" points="462.79 67.79 461.25 73.69 460.96 72.94 462.17 68.31 462.79 67.79"/><rect class="cls-7" x="-350.09" y="232.18" width="6.1" height="26.58" transform="matrix(0.25, -0.97, 0.97, 0.25, 325.17, -323.75)"/><polygon class="cls-2" points="449.34 69.9 445.4 66.4 450.55 65.27 449.34 69.9"/><path class="cls-2" d="M-339.56,251.16-340,251l-6.27-1.64-.33-.09a6.36,6.36,0,0,0-1.43-.19c-1.1,0-2.31.88-1.76,1.65s1.5-.39,2.43,0l.69.18,6.27,1.64,1.3.34a.72.72,0,0,0,.88-.51l0-.12,1.87-7.13-1.52-.4Z" transform="translate(821.92 -171.37)"/><path class="cls-4" d="M-361.49,254.29s-4.56-7.79-5.37-9.21c-1.75-3.06.56-5.08,3.05-4,1.17.52,5.64,6.74,5.64,6.74l5.79,4.29,3.69-.62,9.37,18.12-7,1.2Z" transform="translate(821.92 -171.37)"/></g><circle class="cls-2" cx="75.01" cy="70.88" r="70.88"/><g class="cls-9"><path class="cls-4" d="M-729.28,271.07l18.74-1.5s2.94.14,2.68-1.86c-.14-1.17-2.34-6.5-9.14-6.06-2,.13-8.55-.09-8.55-.09s-5.88-9.16-11.31-12.17l-10.61-.27-8.4,1.46,14,12.95Z" transform="translate(821.92 -171.37)"/><path class="cls-4" d="M-707.71,259.88a5.16,5.16,0,0,1-.79-.09H-731l-11.18-5.58-33.93,0V222l31.37,0,11.53-5.76,19.52,0h8.73v0l7,.17c2.39.06,4.27,2.39,4.2,5.2s-2,4.94-4.27,5v.11a5.4,5.4,0,0,1,4.74,5.62,5.43,5.43,0,0,1-4.74,5.35v.16a5.61,5.61,0,0,1,5.25,5.63,5.61,5.61,0,0,1-5.25,5.35v.19a5.32,5.32,0,0,1,4.51,5.6,5.29,5.29,0,0,1-5.17,5.39Z" transform="translate(821.92 -171.37)"/><rect class="cls-7" x="4.13" y="43.76" width="46.54" height="47.48"/><rect class="cls-2" x="59.91" y="50.65" width="6.93" height="7.46"/><rect class="cls-2" x="59.91" y="75.52" width="6.93" height="7.57"/><rect class="cls-2" x="55.13" y="58.11" width="16.49" height="17.41" rx="3.18"/><path class="cls-10" d="M-753.48,247.3h-10.14a3.59,3.59,0,0,1-3.58-3.59V232.66a3.59,3.59,0,0,1,3.58-3.59h10.14a3.59,3.59,0,0,1,3.59,3.59v11.05A3.59,3.59,0,0,1-753.48,247.3Zm-10.14-17.41a2.78,2.78,0,0,0-2.77,2.77v11.05a2.78,2.78,0,0,0,2.77,2.77h10.14a2.77,2.77,0,0,0,2.77-2.77V232.66a2.77,2.77,0,0,0-2.77-2.77Z" transform="translate(821.92 -171.37)"/><path class="cls-10" d="M-758.55,238.39a.2.2,0,0,1-.2-.2v-3.86a.2.2,0,0,1,.2-.2.2.2,0,0,1,.21.2v3.86A.2.2,0,0,1-758.55,238.39Z" transform="translate(821.92 -171.37)"/><path class="cls-10" d="M-752.94,240.79H-753l-5.61-2.41a.19.19,0,0,1-.1-.26.19.19,0,0,1,.26-.11l5.61,2.4a.22.22,0,0,1,.11.27A.21.21,0,0,1-752.94,240.79Z" transform="translate(821.92 -171.37)"/></g><circle class="cls-11" cx="74.35" cy="261.94" r="68.05"/><g class="cls-12"><polygon class="cls-4" points="100.67 277.62 102.23 277.15 100.67 276.64 100.67 277.62"/><polygon class="cls-4" points="78.42 269.36 52.18 260.77 35.93 262.04 25.48 271.59 42.47 295.19 53.19 287.36 63.2 288.9 78.42 284.32 78.42 269.36"/><polygon class="cls-7" points="47.7 296.05 25.27 268.82 0 290.08 18.76 318.39 47.7 296.05"/><path class="cls-4" d="M-742.86,432.2h0Z" transform="translate(821.92 -171.37)"/><path class="cls-2" d="M-715.93,445.38l-12.58-47h0l-.52-1.94a4.07,4.07,0,0,0-5-2.88l-41,11a4.07,4.07,0,0,0-2.88,5l12.58,47h0l.51,1.94a4.08,4.08,0,0,0,5,2.89l41-10.95A4.08,4.08,0,0,0-715.93,445.38Z" transform="translate(821.92 -171.37)"/><path class="cls-2" d="M-724.87,412-729,396.41a4.07,4.07,0,0,0-5-2.88l-41,11a4.07,4.07,0,0,0-2.88,5l4.15,15.53Z" transform="translate(821.92 -171.37)"/><rect class="cls-5" x="-768.27" y="425.45" width="13.68" height="13.68" rx="3.7" transform="translate(684.4 -353.4) rotate(-14.97)"/><rect class="cls-5" x="-753.59" y="421.53" width="13.68" height="13.68" rx="3.7" transform="translate(685.9 -349.75) rotate(-14.97)"/><rect class="cls-7" x="-736.99" y="417.35" width="13.68" height="28.53" rx="3.7" transform="translate(685.64 -345.34) rotate(-14.97)"/><rect class="cls-5" x="-764.44" y="439.8" width="13.68" height="13.68" rx="3.7" transform="translate(680.83 -351.92) rotate(-14.97)"/><rect class="cls-5" x="-749.75" y="435.87" width="13.68" height="13.68" rx="3.7" transform="translate(682.32 -348.28) rotate(-14.97)"/><rect class="cls-6" x="-773.38" y="403.3" width="43.06" height="11.99" rx="4.05" transform="translate(690.67 -351.71) rotate(-14.97)"/><path class="cls-7" d="M-765.18,432.1l2.32-.62-.62-2.34,2.22-.59.62,2.34,2.36-.63.59,2.22-2.35.63.62,2.34-2.22.6-.62-2.34-2.33.62Z" transform="translate(821.92 -171.37)"/><path class="cls-7" d="M-760.38,449.15l1.21-2.08-2.1-1.21,1.15-2,2.1,1.21,1.22-2.11,2,1.15-1.22,2.11,2.1,1.21-1.15,2-2.1-1.21-1.2,2.08Z" transform="translate(821.92 -171.37)"/><path class="cls-7" d="M-750.39,428.15l6.69-1.79.59,2.22-6.69,1.79Z" transform="translate(821.92 -171.37)"/><path class="cls-7" d="M-745.73,445.29l3.65-6.31,2,1.15-3.65,6.32Z" transform="translate(821.92 -171.37)"/><path class="cls-4" d="M-778.28,414.93l16.6-8.26s2.41-1.62,3.21.2c.47,1.06,1.33,6.68-4.64,9.77-1.78.93-7.18,4.43-7.18,4.43s-.3,10.73-3.36,16c0,0-4.6,8.17-8.82,5.62-5.42-3.27-4.68-8.21-4.68-8.21l2.08-6.81S-779.21,416.6-778.28,414.93Z" transform="translate(821.92 -171.37)"/><path class="cls-4" d="M-701.85,464l-8.86-20.45-2-3.66a3.38,3.38,0,0,0-4.57-1.43,3.38,3.38,0,0,0-1.8,3.11l-.28-.57a3.6,3.6,0,0,0-4.86-1.52,3.59,3.59,0,0,0-1.92,3.41l-.27-.55a3.66,3.66,0,0,0-4.94-1.52,3.66,3.66,0,0,0-1.39,5h0l-.07,0h0l-.07,0-8.57-14.65a3.76,3.76,0,0,0-5.14-1.32,3.75,3.75,0,0,0-1.32,5.14s9.53,16.65,13.92,24.24h0l-3.56,6.62,4.82,9,13,5.16,1.1.71,4.8,8.14,16.5-11-4.44-8.05Z" transform="translate(821.92 -171.37)"/><polygon class="cls-7" points="125.94 300.65 123.09 302.25 103.52 313.21 101.65 314.26 109.81 327.57 132.54 310.81 125.94 300.65"/></g><circle class="cls-11" cx="-560.89" cy="433.31" r="69.37" transform="translate(351.25 -441.07) rotate(-45)"/><g class="cls-13"><path class="cls-4" d="M-546.23,399.11l-.74,9.33s.07,1.46-.93,1.34a4.15,4.15,0,0,1-3-4.56c.07-1,0-4.25,0-4.25s-4.56-2.93-6.06-5.63c0,0-2.33-4.12-.13-5.28a28,28,0,0,1,3.11-1.55l4.06,4.34Z" transform="translate(821.92 -171.37)"/><path class="cls-14" d="M-550.47,425.91H-571.3c-3.25,0-5.89-3.13-5.89-7V412c0-3.85,2.64-7,5.89-7h20.83c3.24,0,5.88,3.13,5.88,7v6.9C-544.59,422.78-547.23,425.91-550.47,425.91Zm-20.83-17c-1,0-2.05,1.29-2.05,3.14v6.9c0,1.85,1.08,3.14,2.05,3.14h20.83c1,0,2.05-1.29,2.05-3.14V412c0-1.85-1.08-3.14-2.05-3.14Z" transform="translate(821.92 -171.37)"/><path class="cls-2" d="M-520.36,474.6a4.63,4.63,0,0,1-4.75,4.47h-71.55a4.63,4.63,0,0,1-4.76-4.47V424.14a4.63,4.63,0,0,1,4.76-4.48h71.55a4.63,4.63,0,0,1,4.75,4.48Z" transform="translate(821.92 -171.37)"/><path class="cls-14" d="M-520.36,451.5V424.14a4.63,4.63,0,0,0-4.75-4.48h-71.55a4.63,4.63,0,0,0-4.76,4.48V451.5Z" transform="translate(821.92 -171.37)"/><path class="cls-2" d="M-518.88,444.43a4.63,4.63,0,0,1-4.75,4.47h-74.51a4.63,4.63,0,0,1-4.76-4.47V420a4.63,4.63,0,0,1,4.76-4.47h74.51a4.63,4.63,0,0,1,4.75,4.47Z" transform="translate(821.92 -171.37)"/><rect class="cls-5" x="253.64" y="273.3" width="14.79" height="8.07"/><path class="cls-4" d="M-550.44,407.26a2.32,2.32,0,0,0,0-.38V395.94l-2.59,1.32-.18-6.77,0-16.53h-16v15.28l-2.87,5.62,0,9.51h0v4.25h0L-572,412a2.35,2.35,0,0,0,2.59,2A2.38,2.38,0,0,0-567,412h.06a2.68,2.68,0,0,0,2.79,2.31,2.69,2.69,0,0,0,2.67-2.31h.08a2.77,2.77,0,0,0,2.8,2.56A2.78,2.78,0,0,0-555.9,412h.1a2.63,2.63,0,0,0,2.78,2.2,2.62,2.62,0,0,0,2.69-2.52Z" transform="translate(821.92 -171.37)"/><rect class="cls-2" x="248.87" y="188" width="23.63" height="23.16"/></g><circle class="cls-11" cx="-388.48" cy="433.31" r="68.84" transform="translate(401.74 -319.16) rotate(-45)"/><g class="cls-15"><polygon class="cls-4" points="486.68 262.23 467.07 271.17 459.18 279.13 437.4 288.72 424.74 251.19 452.88 241.46 474.07 232.56 486.68 262.23"/><polygon class="cls-2" points="481.94 271.68 463.97 232.67 498.16 216.63 512.82 257.88 481.94 271.68"/><rect class="cls-2" x="-416.43" y="402.44" width="41.62" height="71.72" rx="3.73" transform="translate(554.5 -309.43) rotate(-29.53)"/><rect class="cls-6" x="-412.71" y="406.03" width="34.17" height="64.52" transform="translate(554.5 -309.43) rotate(-29.53)"/><path class="cls-2" d="M-388.72,450.48A14.13,14.13,0,0,1-408,445.31a14.11,14.11,0,0,1,5.49-19.2,14.12,14.12,0,0,1,19.29,5.16A14.14,14.14,0,0,1-388.72,450.48Z" transform="translate(821.92 -171.37)"/><path class="cls-6" d="M-395,432.67c2.32-1.3,3.87-.3,4.93,1.44l1.39-.78.88,1.54-1.41.79a12.76,12.76,0,0,1,1.11,3.08l-2.06,1.17c-.47-1-1.38-2.8-1.84-3.6s-.85-1.36-1.74-.86l-.4.23c-.7.4-.81.84-.33,1.7l.74,1.3c1.35,2.4-.32,4-1.62,4.75l-.68.38c-2.75,1.56-4.3.27-5.21-1.33l-1.32.75-.88-1.54,1.35-.77a9.71,9.71,0,0,1-1.12-3.11l2.05-1.16c.32.67,1.11,2.32,2,3.82.39.69.86,1.15,1.56.75l.47-.26c.58-.33.83-.71.38-1.51l-.71-1.25c-1.64-2.89.61-4.46,1.49-5Z" transform="translate(821.92 -171.37)"/><path class="cls-2" d="M-392.58,406.63l-3.9-6.89-6.31,3.58a6.77,6.77,0,0,0,.64,1.6,6.32,6.32,0,0,0,8.61,2.38A6.81,6.81,0,0,0-392.58,406.63Z" transform="translate(821.92 -171.37)"/><path class="cls-2" d="M-363,458.8l-3.87-6.84a6.52,6.52,0,0,0-1.08.49,6.32,6.32,0,0,0-2.38,8.61,6.28,6.28,0,0,0,1,1.32Z" transform="translate(821.92 -171.37)"/><path class="cls-2" d="M-425.69,424.92a6.25,6.25,0,0,0,2.42-.78,6.32,6.32,0,0,0,2.38-8.61,6.47,6.47,0,0,0-1.05-1.37l-7.45,4.23Z" transform="translate(821.92 -171.37)"/><path class="cls-2" d="M-388.47,473.21a6.29,6.29,0,0,0-.62-1.54,6.32,6.32,0,0,0-8.61-2.38,6.18,6.18,0,0,0-1.91,1.67l3.67,6.49Z" transform="translate(821.92 -171.37)"/><path class="cls-2" d="M-404.71,422.25a4.06,4.06,0,0,0,1.53-5.52,4.06,4.06,0,0,0-5.52-1.52,4,4,0,0,0-1.52,5.51A4,4,0,0,0-404.71,422.25Z" transform="translate(821.92 -171.37)"/><path class="cls-2" d="M-382.54,461.38a4.05,4.05,0,0,0,1.52-5.52,4,4,0,0,0-5.51-1.52,4,4,0,0,0-1.53,5.51A4,4,0,0,0-382.54,461.38Z" transform="translate(821.92 -171.37)"/><path class="cls-4" d="M-377.35,427.7l-18.41-10.6-3.05,1c-.6,9.71-9.4,9.12-10.87,9s-.8-3.76-.8-3.76l4.14-14.45,15.23-4.84c3.93.76,23.72,8.71,23.72,8.71Z" transform="translate(821.92 -171.37)"/><path class="cls-4" d="M-420.82,444.07a4.8,4.8,0,0,1-6.34-2.37h0a4.83,4.83,0,0,1,1.63-6.59l7.19-3.8a4.78,4.78,0,0,1,6.34,2.37h0a4.83,4.83,0,0,1-1.63,6.59Z" transform="translate(821.92 -171.37)"/><path class="cls-4" d="M-415.85,453a5.09,5.09,0,0,1-6.91-2.06h0a5.13,5.13,0,0,1,2.21-6.89l8.24-4.36a5.09,5.09,0,0,1,6.91,2.07h0a5.13,5.13,0,0,1-2.21,6.89Z" transform="translate(821.92 -171.37)"/><path class="cls-4" d="M-410.89,462a4.86,4.86,0,0,1-6.48-2.3h0A4.9,4.9,0,0,1-415.6,453l7.46-3.94a4.86,4.86,0,0,1,6.48,2.3h0a4.89,4.89,0,0,1-1.78,6.66Z" transform="translate(821.92 -171.37)"/><path class="cls-4" d="M-405.24,469.87c-1.88,1-4.39-.05-5.6-2.34h0c-1.2-2.29-.64-5,1.25-6l6.17-3.26c1.89-1,4.4,0,5.6,2.33h0c1.2,2.29.65,5-1.24,6Z" transform="translate(821.92 -171.37)"/></g></svg>