<svg xmlns="http://www.w3.org/2000/svg" xmlns:xlink="http://www.w3.org/1999/xlink" width="389.083" height="73.242" viewBox="0 0 389.083 73.242">
  <defs>
    <clipPath id="clip-path">
      <path id="Path_452" data-name="Path 452" d="M14.976,0,0,14.976,14.976,29.952,0,44.927,14.976,59.9,29.952,44.927,44.928,29.952,29.952,14.976Z" fill="#30353e"/>
    </clipPath>
  </defs>
  <g id="Group_477" data-name="Group 477" transform="translate(-527 -2354.007)">
    <path id="Path_451" data-name="Path 451" d="M426.88,175.045l0,0,29.52,29.519-29.52,29.52,0,0" transform="translate(294.018 2186.066)" fill="none" stroke="#30353e" stroke-linecap="round" stroke-miterlimit="10" stroke-width="10"/>
    <path id="Polygon_3" data-name="Polygon 3" d="M21.913,0,43.826,37.781H0Z" transform="translate(564.781 2368.934) rotate(90)" fill="#30353e"/>
    <line id="Line_29" data-name="Line 29" x2="12" transform="translate(659 2393)" fill="none" stroke="#707070" stroke-width="1"/>
    <g id="Group_468" data-name="Group 468" transform="translate(801.319 2389)">
      <line id="Line_31" data-name="Line 31" x2="12" transform="translate(-0.319)" fill="none" stroke="#707070" stroke-width="1"/>
      <line id="Line_32" data-name="Line 32" x2="12" transform="translate(-0.319 3)" fill="none" stroke="#707070" stroke-width="1"/>
    </g>
    <line id="Line_30" data-name="Line 30" y2="12" transform="translate(665 2387)" fill="none" stroke="#707070" stroke-width="1"/>
    <g id="Group_470" data-name="Group 470" transform="translate(871.156 2361)">
      <g id="Group_469" data-name="Group 469" clip-path="url(#clip-path)">
        <rect id="Rectangle_240" data-name="Rectangle 240" width="59.96" height="45.004" transform="translate(-0.076 59.903) rotate(-89.927)" fill="#30353e"/>
      </g>
    </g>
  </g>
</svg>
