<svg xmlns="http://www.w3.org/2000/svg" xmlns:xlink="http://www.w3.org/1999/xlink" width="71.727" height="71.727" viewBox="0 0 71.727 71.727">
  <defs>
    <clipPath id="clip-path">
      <rect id="Rectangle_49" data-name="Rectangle 49" width="71.727" height="71.727" transform="translate(0 0)" fill="none"/>
    </clipPath>
  </defs>
  <g id="Group_31" data-name="Group 31" transform="translate(0 0)">
    <g id="Group_30" data-name="Group 30" clip-path="url(#clip-path)">
      <path id="Path_18" data-name="Path 18" d="M35.863,71.726h0A35.863,35.863,0,1,1,71.726,35.863,35.863,35.863,0,0,1,35.863,71.726" fill="#eb4c89"/>
      <path id="Path_19" data-name="Path 19" d="M35.863,13A22.863,22.863,0,1,0,58.726,35.864,22.863,22.863,0,0,0,35.863,13m0,3.976a18.775,18.775,0,0,1,11.514,3.949,23.106,23.106,0,0,1-9.5,7.009,87.891,87.891,0,0,0-6.646-10.358,18.74,18.74,0,0,1,4.632-.6m-8.519,2.054a85.083,85.083,0,0,1,6.738,10.253,60.657,60.657,0,0,1-16.547,2.107,18.942,18.942,0,0,1,9.809-12.36M16.978,35.862c0-.163.022-.322.025-.485a63.844,63.844,0,0,0,18.955-2.521q.666,1.358,1.276,2.73A29.414,29.414,0,0,0,21.352,47.93a18.789,18.789,0,0,1-4.374-12.068M35.863,54.75a18.768,18.768,0,0,1-11.59-4.006c3.751-5.886,8.541-9.715,14.475-11.483a74.807,74.807,0,0,1,3.894,14.212,18.753,18.753,0,0,1-6.779,1.277m10.483-3.189a78.4,78.4,0,0,0-3.657-13.138A38,38,0,0,1,54.5,38.8a18.89,18.89,0,0,1-8.153,12.763m-5.181-16.9c-.464-1.072-.946-2.142-1.462-3.2a26.992,26.992,0,0,0,10.571-7.777A18.807,18.807,0,0,1,54.7,34.8a40.845,40.845,0,0,0-13.531-.14" fill="#fff"/>
    </g>
  </g>
</svg>
