<svg xmlns="http://www.w3.org/2000/svg" xmlns:xlink="http://www.w3.org/1999/xlink" width="72" height="72" viewBox="0 0 72 72">
  <defs>
    <clipPath id="clip-path">
      <rect id="Rectangle_85" data-name="Rectangle 85" width="72" height="72" fill="none"/>
    </clipPath>
  </defs>
  <g id="Group_48" data-name="Group 48" transform="translate(0 0)">
    <g id="Group_47" data-name="Group 47" transform="translate(0 0)" clip-path="url(#clip-path)">
      <path id="Path_7" data-name="Path 7" d="M34.293.038C15.719.928.7,16.488.035,35.548a36.88,36.88,0,0,0,24.591,36.39c1.789.34,2.459-.8,2.459-1.78s0-3.78-.05-6.87c-10,2.23-12.126-4.35-12.126-4.35-1.639-4.27-4-5.4-4-5.4-3.269-2.3.25-2.25.25-2.25,3.609.26,5.518,3.81,5.518,3.81,3.209,5.64,8.417,4,10.466,3.06a7.913,7.913,0,0,1,2.289-4.93c-8-.94-16.394-4.1-16.394-18.24a14.5,14.5,0,0,1,3.7-9.91,13.636,13.636,0,0,1,.35-9.77s3-1,9.906,3.78a33.365,33.365,0,0,1,17.995,0c6.867-4.77,9.885-3.78,9.885-3.78a13.631,13.631,0,0,1,.35,9.77,14.443,14.443,0,0,1,3.7,9.91c0,14.17-8.417,17.29-16.424,18.21,1.29,1.14,2.439,3.39,2.439,6.83v10.13c0,1,.641,2.14,2.47,1.77a36.84,36.84,0,0,0,24.59-35C71.989,15.978,54.946-.912,34.293.038" transform="translate(0 0)" fill="#191717" fill-rule="evenodd"/>
    </g>
  </g>
</svg>
