<svg xmlns="http://www.w3.org/2000/svg" xmlns:xlink="http://www.w3.org/1999/xlink" width="71.727" height="71.727" viewBox="0 0 71.727 71.727">
  <defs>
    <clipPath id="clip-path">
      <rect id="Rectangle_46" data-name="Rectangle 46" width="71.727" height="71.727" transform="translate(0 0)" fill="none"/>
    </clipPath>
  </defs>
  <g id="Group_24" data-name="Group 24" transform="translate(0 0)">
    <g id="Group_23" data-name="Group 23" clip-path="url(#clip-path)">
      <path id="Path_11" data-name="Path 11" d="M35.863,71.727h0A35.863,35.863,0,1,1,71.726,35.864,35.863,35.863,0,0,1,35.863,71.727" fill="#117bb8"/>
      <rect id="Rectangle_45" data-name="Rectangle 45" width="7.422" height="23.979" transform="translate(19.601 27.869)" fill="#fff"/>
      <path id="Path_12" data-name="Path 12" d="M23.277,24.729A4.425,4.425,0,1,0,18.888,20.3a4.409,4.409,0,0,0,4.389,4.426" fill="#fff"/>
      <path id="Path_13" data-name="Path 13" d="M38.888,39.26c0-3.371,1.551-5.379,4.522-5.379,2.729,0,4.041,1.928,4.041,5.379V51.847h7.388V36.665c0-6.423-3.641-9.528-8.725-9.528A8.36,8.36,0,0,0,38.888,31.1v-3.23h-7.12V51.847h7.12Z" fill="#fff"/>
    </g>
  </g>
</svg>
